<?xml version="1.0" encoding="utf-8"?>
<!-- Generator: Adobe Illustrator 21.1.0, SVG Export Plug-In . SVG Version: 6.00 Build 0)  -->
<svg version="1.1" id="Layer_1" xmlns="http://www.w3.org/2000/svg" xmlns:xlink="http://www.w3.org/1999/xlink" x="0px" y="0px"
	 viewBox="0 0 119.8 26.7" style="enable-background:new 0 0 119.8 26.7;" xml:space="preserve">
<style type="text/css">
	.st0{fill:#E21D3B;}
	.st1{fill:#FFFFFF;}
</style>
<g>
	
		<image style="overflow:visible;opacity:0.25;" width="487" height="100" xlink:href="AB250711.png"  transform="matrix(0.24 0 0 0.24 2.0242 1.9284)">
	</image>
	<g>
		<path class="st0" d="M115.1,23.7H4.6C3.8,23.7,3,23,3,22.1V4.5c0-0.9,0.7-1.6,1.6-1.6h110.5c0.9,0,1.6,0.7,1.6,1.6v17.6
			C116.7,23,116,23.7,115.1,23.7z"/>
	</g>
</g>
<g>
	<path class="st1" d="M13,14.7h-1.6v3.6H9.3v-10H13c0.6,0,1.1,0.1,1.5,0.2c0.5,0.1,0.8,0.3,1.2,0.6c0.3,0.3,0.6,0.6,0.7,0.9
		c0.2,0.4,0.3,0.8,0.3,1.3c0,0.4,0,0.7-0.1,1c-0.1,0.3-0.2,0.5-0.4,0.8c-0.2,0.2-0.3,0.4-0.6,0.6c-0.2,0.2-0.5,0.3-0.7,0.4l2.2,4.1
		v0.1h-2.2L13,14.7z M11.4,13H13c0.3,0,0.5,0,0.7-0.1s0.4-0.2,0.5-0.3c0.1-0.1,0.2-0.3,0.3-0.5s0.1-0.4,0.1-0.6
		c0-0.5-0.1-0.8-0.4-1.1C14,10.2,13.6,10,13,10h-1.6V13z"/>
	<path class="st1" d="M25,14H21v2.7h4.6v1.6H19v-10h6.7V10H21v2.4H25V14z"/>
	<path class="st1" d="M35.4,17.1c-0.1,0.1-0.3,0.3-0.5,0.5s-0.5,0.3-0.8,0.5c-0.3,0.1-0.7,0.3-1.1,0.3c-0.4,0.1-0.9,0.1-1.5,0.1
		c-0.6,0-1.2-0.1-1.8-0.3c-0.5-0.2-1-0.5-1.4-0.9s-0.7-0.9-0.9-1.5c-0.2-0.6-0.3-1.3-0.3-2.1v-0.6c0-0.8,0.1-1.5,0.3-2.1
		s0.5-1.1,0.8-1.5c0.4-0.4,0.8-0.7,1.3-0.9c0.5-0.2,1.1-0.3,1.7-0.3c0.6,0,1.2,0.1,1.7,0.2c0.5,0.2,0.9,0.4,1.2,0.7
		c0.3,0.3,0.6,0.6,0.7,1c0.2,0.4,0.3,0.9,0.3,1.3h-2c0-0.3-0.1-0.5-0.2-0.7c-0.1-0.2-0.2-0.4-0.4-0.5c-0.2-0.1-0.3-0.3-0.6-0.3
		s-0.5-0.1-0.8-0.1c-0.7,0-1.2,0.3-1.6,0.8c-0.4,0.5-0.5,1.3-0.5,2.4v0.6c0,1,0.2,1.8,0.6,2.4c0.4,0.5,1,0.8,1.7,0.8
		c0.2,0,0.5,0,0.6,0c0.2,0,0.3-0.1,0.5-0.1c0.1,0,0.2-0.1,0.3-0.2c0.1-0.1,0.2-0.1,0.2-0.2v-1.7h-1.9v-1.5h3.9V17.1z"/>
	<path class="st1" d="M40,18.3h-2.1v-10H40V18.3z"/>
	<path class="st1" d="M47.7,15.7c0-0.2,0-0.3-0.1-0.5c-0.1-0.1-0.1-0.3-0.3-0.4c-0.1-0.1-0.3-0.2-0.6-0.3c-0.3-0.1-0.6-0.2-1-0.4
		c-0.5-0.1-0.9-0.3-1.3-0.5c-0.4-0.2-0.8-0.4-1.1-0.6c-0.3-0.2-0.5-0.5-0.7-0.9c-0.2-0.3-0.3-0.7-0.3-1.1c0-0.4,0.1-0.8,0.3-1.1
		c0.2-0.3,0.4-0.6,0.8-0.9s0.7-0.4,1.2-0.6c0.4-0.1,0.9-0.2,1.5-0.2c0.6,0,1.1,0.1,1.5,0.2c0.5,0.2,0.8,0.4,1.2,0.6
		c0.3,0.3,0.6,0.6,0.7,1c0.2,0.4,0.3,0.8,0.3,1.2h-2.1c0-0.2,0-0.4-0.1-0.6s-0.2-0.3-0.3-0.5C47.2,10.1,47,10,46.8,10
		s-0.4-0.1-0.7-0.1c-0.3,0-0.5,0-0.7,0.1c-0.2,0.1-0.4,0.1-0.5,0.2c-0.1,0.1-0.2,0.2-0.3,0.4c-0.1,0.1-0.1,0.3-0.1,0.5
		c0,0.3,0.2,0.6,0.5,0.8c0.3,0.2,0.8,0.4,1.5,0.6c0.5,0.2,1,0.4,1.4,0.6c0.4,0.2,0.8,0.4,1,0.7s0.5,0.6,0.6,0.9
		c0.1,0.3,0.2,0.7,0.2,1.1c0,0.4-0.1,0.8-0.3,1.2c-0.2,0.3-0.4,0.6-0.7,0.9c-0.3,0.2-0.7,0.4-1.1,0.5c-0.4,0.1-0.9,0.2-1.5,0.2
		c-0.3,0-0.7,0-1-0.1s-0.6-0.1-0.9-0.3c-0.3-0.1-0.6-0.3-0.8-0.4c-0.3-0.2-0.5-0.4-0.7-0.6c-0.2-0.2-0.3-0.5-0.4-0.8
		c-0.1-0.3-0.2-0.6-0.2-1h2.1c0,0.3,0,0.6,0.1,0.8c0.1,0.2,0.2,0.4,0.4,0.5c0.2,0.1,0.4,0.2,0.6,0.3c0.2,0.1,0.5,0.1,0.8,0.1
		c0.3,0,0.5,0,0.7-0.1s0.4-0.1,0.5-0.2c0.1-0.1,0.2-0.2,0.3-0.4S47.7,15.9,47.7,15.7z"/>
	<path class="st1" d="M59.4,10h-3.1v8.3h-2.1V10h-3V8.4h8.1V10z"/>
	<path class="st1" d="M65,14.7h-1.6v3.6h-2.1v-10H65c0.6,0,1.1,0.1,1.5,0.2c0.5,0.1,0.8,0.3,1.2,0.6c0.3,0.3,0.6,0.6,0.7,0.9
		c0.2,0.4,0.3,0.8,0.3,1.3c0,0.4,0,0.7-0.1,1c-0.1,0.3-0.2,0.5-0.4,0.8c-0.2,0.2-0.3,0.4-0.6,0.6c-0.2,0.2-0.5,0.3-0.7,0.4l2.2,4.1
		v0.1h-2.2L65,14.7z M63.3,13H65c0.3,0,0.5,0,0.7-0.1s0.4-0.2,0.5-0.3c0.1-0.1,0.2-0.3,0.3-0.5c0.1-0.2,0.1-0.4,0.1-0.6
		c0-0.5-0.1-0.8-0.4-1.1C65.9,10.2,65.5,10,65,10h-1.6V13z"/>
	<path class="st1" d="M73.1,18.3H71v-10h2.1V18.3z"/>
	<path class="st1" d="M81.7,14h-3.9v2.7h4.6v1.6h-6.7v-10h6.7V10h-4.6v2.4h3.9V14z"/>
	<path class="st1" d="M88,14.7h-1.6v3.6h-2.1v-10H88c0.6,0,1.1,0.1,1.5,0.2c0.5,0.1,0.8,0.3,1.2,0.6c0.3,0.3,0.6,0.6,0.7,0.9
		c0.2,0.4,0.3,0.8,0.3,1.3c0,0.4,0,0.7-0.1,1c-0.1,0.3-0.2,0.5-0.4,0.8c-0.2,0.2-0.3,0.4-0.6,0.6c-0.2,0.2-0.5,0.3-0.7,0.4l2.2,4.1
		v0.1h-2.2L88,14.7z M86.3,13H88c0.3,0,0.5,0,0.7-0.1s0.4-0.2,0.5-0.3c0.1-0.1,0.2-0.3,0.3-0.5s0.1-0.4,0.1-0.6
		c0-0.5-0.1-0.8-0.4-1.1C88.9,10.2,88.5,10,88,10h-1.6V13z"/>
	<path class="st1" d="M99.9,14H96v2.7h4.6v1.6h-6.7v-10h6.7V10H96v2.4h3.9V14z"/>
	<path class="st1" d="M110.6,18.3h-2.1l-4-6.6v6.6h-2.1v-10h2.1l4,6.6V8.4h2V18.3z"/>
</g>
</svg>
